<svg width="752" height="188" viewBox="0 0 752 188" fill="none" xmlns="http://www.w3.org/2000/svg">
<path d="M111.061 33.0377C112.248 36.9016 111.977 39.3052 110.632 43.066C110.317 43.9671 110.002 44.8681 109.677 45.7965C109.338 46.7238 109 47.6511 108.652 48.6064C108.317 49.5534 107.983 50.5003 107.638 51.4759C106.813 53.807 105.977 56.1332 105.131 58.4561C100.226 57.5222 96.0739 55.7028 91.5222 53.6305C79.5763 48.8604 65.3789 48.1541 53.3561 53.0467C45.4183 57.1725 40.1741 62.6579 35.9486 70.6569C35.49 71.497 35.0313 72.3371 34.5588 73.2027C27.0619 88.964 27.5837 109.611 32.003 126.264C35.7136 137.172 41.5574 145.747 51.7617 150.979C60.9337 154.675 69.6275 154.438 79.2802 153.505C80.2401 153.413 81.2001 153.321 82.1891 153.226C83.2717 153.12 83.2717 153.12 84.3762 153.013C84.3864 152.442 84.3965 151.872 84.407 151.285C84.5143 145.33 84.6275 139.376 84.7441 133.421C84.7868 131.201 84.828 128.982 84.8677 126.762C84.925 123.564 84.9879 120.366 85.0518 117.169C85.0683 116.182 85.0848 115.196 85.1018 114.18C85.2094 109.072 85.5212 104.164 86.3528 99.1255C90.6149 99.0962 94.877 99.078 99.1392 99.062C100.356 99.0535 101.574 99.0449 102.828 99.0362C103.984 99.0329 105.14 99.0296 106.331 99.0262C107.939 99.0183 107.939 99.0183 109.578 99.0101C112.049 99.1255 112.049 99.1255 113.037 100.142C113.125 103.114 113.149 106.059 113.126 109.031C113.121 110.395 113.121 110.395 113.115 111.788C113.063 120.948 112.891 130.105 112.669 139.263C112.604 141.99 112.546 144.717 112.487 147.444C112.297 155.786 112.058 164.041 111.061 172.331C97.5207 178.882 82.2764 179.827 67.513 179.893C66.3395 179.903 65.166 179.913 63.9569 179.923C46.1319 179.745 31.0156 174.059 18.1589 161.146C15.4962 157.938 13.3193 154.611 11.2407 150.979C10.4495 149.619 10.4495 149.619 9.64236 148.231C3.50136 136.727 0.822512 123.369 0.369156 110.31C0.329662 109.466 0.290168 108.622 0.249477 107.752C-0.181786 90.3185 2.468 70.0759 12.229 55.4059C12.8545 54.4648 13.48 53.5238 14.1245 52.5542C19.1865 45.1874 24.2251 39.3569 31.6865 34.4992C32.295 34.1014 32.9036 33.7035 33.5306 33.2936C54.471 19.9084 89.9895 18.3338 111.061 33.0377Z" fill="#696969"/>
<path d="M150.593 26.9372C179.62 26.9372 208.647 26.9372 238.554 26.9372C238.554 34.9898 238.554 43.0423 238.554 51.3389C218.007 51.3389 197.459 51.3389 176.29 51.3389C176.29 60.7336 176.29 70.1282 176.29 79.8075C175.964 81.8207 175.637 83.8338 175.301 85.908C193.566 85.908 211.83 85.908 230.647 85.908C230.647 93.9605 230.647 102.013 230.647 110.31C227.62 111.348 225.699 111.418 222.537 111.348C221.489 111.328 220.44 111.308 219.36 111.287C218.23 111.259 217.099 111.232 215.934 111.203C214.776 111.179 213.617 111.155 212.424 111.13C208.718 111.053 205.012 110.967 201.307 110.882C198.796 110.827 196.286 110.774 193.776 110.721C187.618 110.589 181.46 110.452 175.301 110.31C175.307 111.574 175.307 111.574 175.314 112.864C175.325 115.188 175.336 117.513 175.347 119.837C175.359 122.257 175.374 124.677 175.39 127.096C175.393 128.175 175.395 129.254 175.398 130.366C175.406 131.98 175.406 131.98 175.414 133.626C175.247 139.758 174.738 145.876 174.313 151.996C196.491 151.996 218.669 151.996 241.519 151.996C241.519 165.87 241.519 165.87 241.086 170.996C240.966 172.512 240.966 172.512 240.843 174.058C240.53 176.397 240.53 176.397 239.542 177.414C236.72 177.516 233.922 177.553 231.099 177.546C230.213 177.548 229.328 177.549 228.416 177.551C225.474 177.556 222.532 177.553 219.59 177.549C217.556 177.55 215.521 177.551 213.486 177.552C209.215 177.554 204.945 177.552 200.674 177.547C195.187 177.541 189.7 177.544 184.212 177.55C180.009 177.554 175.805 177.553 171.602 177.55C169.578 177.55 167.554 177.55 165.53 177.553C162.707 177.555 159.883 177.551 157.06 177.546C156.215 177.548 155.37 177.55 154.499 177.552C148.73 177.53 148.73 177.53 147.629 176.397C147.559 174.27 147.562 172.14 147.591 170.012C147.599 169.34 147.607 168.669 147.615 167.977C147.643 165.724 147.678 163.471 147.713 161.218C147.735 159.628 147.756 158.037 147.776 156.447C147.832 152.165 147.895 147.884 147.96 143.602C148.012 140.06 148.061 136.518 148.111 132.977C148.268 121.693 148.439 110.409 148.617 99.1255C148.628 98.3905 148.64 97.6556 148.652 96.8983C148.794 87.812 148.947 78.726 149.111 69.6402C149.129 68.6236 149.146 67.6071 149.164 66.5597C149.215 63.6678 149.27 60.776 149.327 57.8842C149.341 57.1001 149.354 56.3161 149.368 55.5083C149.568 45.9692 150.13 36.4778 150.593 26.9372Z" fill="#696969"/>
<g transform="translate(25, 0)">
<path d="M324.537 0.50209C328.746 0.825532 331.742 1.97663 335.332 4.1957C336.25 4.75592 337.168 5.31613 338.115 5.89333C339.097 6.50482 340.08 7.11631 341.092 7.74634C343.23 9.05379 345.369 10.3604 347.508 11.6663C348.611 12.3431 349.714 13.0199 350.85 13.7172C356.176 16.9668 361.544 20.1403 366.911 23.3151C369.039 24.5767 371.166 25.8383 373.293 27.1001C377.309 29.4801 381.326 31.8578 385.344 34.2336C387.744 35.6525 390.142 37.0727 392.541 38.493C394.248 39.5028 395.955 40.5108 397.663 41.5188C398.687 42.1251 399.71 42.7313 400.765 43.3559C401.673 43.8925 402.581 44.429 403.516 44.9818C405.579 46.2552 405.579 46.2552 406.568 47.272C406.751 50.1564 406.87 53.0178 406.947 55.906C406.974 56.8121 407.001 57.7182 407.029 58.6517C407.266 67.0378 407.408 75.4258 407.519 83.8146C407.596 89.4517 407.704 95.0839 407.89 100.718C408.068 106.165 408.163 111.608 408.2 117.058C408.229 119.13 408.286 121.202 408.374 123.273C409.015 139.052 409.015 139.052 404.941 143.674C400.927 146.92 396.533 149.089 391.833 151.082C388.833 152.408 386.132 154.087 383.338 155.824C381.343 157.006 379.347 158.187 377.351 159.367C367.688 165.089 358.047 170.847 348.434 176.659C346.637 177.742 344.836 178.817 343.03 179.885C341.172 180.992 339.328 182.126 337.497 183.28C336.562 183.849 335.627 184.418 334.664 185.004C333.834 185.523 333.004 186.042 332.148 186.577C327.592 188.292 323.959 187.22 319.643 185.198C318.683 184.619 317.724 184.04 316.735 183.443C315.641 182.791 314.547 182.139 313.419 181.467C312.245 180.751 311.072 180.036 309.898 179.321C308.668 178.582 307.438 177.845 306.207 177.109C303.673 175.592 301.142 174.069 298.614 172.542C295.127 170.437 291.626 168.36 288.12 166.29C286.491 165.328 286.491 165.328 284.828 164.346C283.786 163.731 282.743 163.115 281.669 162.481C278.723 160.739 275.807 158.999 272.941 157.118C269.946 155.283 266.979 154.328 263.641 153.318C256.843 150.872 251.452 148.196 247.449 141.828C243.051 128.052 244.934 111.692 245.437 97.4437C245.566 92.9867 245.58 88.5327 245.591 84.0741C245.609 79.7756 245.675 75.4791 245.758 71.1815C245.796 69.1293 245.825 67.0769 245.844 65.0244C246.054 49.1181 246.054 49.1181 249.368 44.7302C251.659 43.1215 253.733 42.1105 256.343 41.1715C257.211 40.6479 258.079 40.1243 258.973 39.5849C259.686 39.1963 260.399 38.8077 261.134 38.4073C261.965 37.9499 262.795 37.4925 263.65 37.0212C264.521 36.5454 265.391 36.0697 266.288 35.5795C275.293 30.5941 284.153 25.3945 292.968 20.0633C300.673 15.4043 308.423 10.8336 316.214 6.32847C317.022 5.85795 317.829 5.38743 318.662 4.90265C319.37 4.49275 320.078 4.08285 320.808 3.66053C322.713 2.53243 322.713 2.53243 324.537 0.50209ZM314.963 17.8502C313.319 18.842 313.319 18.842 311.641 19.8538C308.346 21.8493 305.074 23.8796 301.806 25.9205C300.091 26.9792 298.376 28.0371 296.66 29.0938C295.097 30.0598 293.533 31.0257 291.923 32.0209C280.535 39.05 268.919 45.6804 257.332 52.3556C257.332 77.8554 257.332 103.355 257.332 129.628C262.097 127.539 262.097 127.539 266.227 124.544C266.297 122.517 266.298 120.487 266.273 118.459C266.261 117.155 266.248 115.852 266.236 114.509C266.228 113.808 266.22 113.106 266.212 112.384C266.171 107.898 266.182 103.412 266.182 98.9261C266.179 94.9821 266.159 91.0398 266.101 87.0962C266.047 83.2838 266.041 79.4741 266.067 75.6614C266.068 74.2106 266.051 72.7596 266.017 71.3092C265.917 66.8483 265.975 62.7484 267.215 58.4561C270.138 55.409 273.275 53.9407 277.098 52.3556C278.123 51.7396 279.147 51.1236 280.203 50.489C281.076 49.9726 281.95 49.4562 282.85 48.9242C283.857 48.3283 284.864 47.7325 285.901 47.1186C286.95 46.4981 288 45.8777 289.081 45.2385C291.347 43.8965 293.612 42.5542 295.876 41.2113C296.448 40.8722 297.02 40.5331 297.609 40.1838C303.67 36.588 309.72 32.9744 315.766 29.352C316.731 28.7753 317.695 28.1986 318.689 27.6045C323.993 24.4231 329.233 21.1645 334.421 17.7866C333.67 14.4887 333.67 14.4887 330.633 12.6354C324.806 10.3169 319.808 14.7999 314.963 17.8502ZM317.187 39.0619C311.619 42.4704 306.031 45.8355 300.402 49.1361C298.64 50.1694 296.881 51.2076 295.124 52.2509C291.472 54.4141 287.834 56.5291 284.036 58.4084C279.803 60.5765 279.803 60.5765 276.11 63.5397C275.166 67.1335 275.346 70.0924 276.11 73.7071C280.293 72.3981 283.876 70.7617 287.649 68.4963C288.703 67.8669 289.757 67.2375 290.844 66.589C291.954 65.9182 293.064 65.2475 294.208 64.5565C295.37 63.86 296.532 63.164 297.695 62.4684C301.046 60.4606 304.392 58.4427 307.736 56.4226C308.573 55.9173 309.411 55.4121 310.273 54.8915C311.712 54.0229 313.15 53.1536 314.588 52.2834C315.899 51.4899 317.212 50.6981 318.525 49.9079C322.208 47.6876 325.858 45.4213 329.491 43.1137C331.175 42.0637 332.859 41.0139 334.544 39.9642C335.317 39.4612 336.091 38.9583 336.887 38.4401C337.625 37.9849 338.363 37.5298 339.123 37.0609C339.766 36.6517 340.41 36.2426 341.073 35.821C345.628 34.2979 349.392 35.6609 353.556 37.7738C354.701 38.4819 355.839 39.2019 356.97 39.9324C357.583 40.3122 358.195 40.692 358.826 41.0833C360.766 42.2877 362.697 43.5071 364.626 44.7301C366.559 45.9523 368.494 47.1705 370.437 48.3769C371.64 49.1246 372.839 49.8811 374.031 50.648C377.61 52.874 380.628 54.1687 384.825 54.3891C388.133 52.545 388.133 52.545 390.755 50.3222C388.307 47.5109 385.61 45.8265 382.435 43.9596C381.365 43.3273 380.295 42.695 379.192 42.0436C378.043 41.3714 376.894 40.6995 375.745 40.0277C374.579 39.3422 373.414 38.6564 372.249 37.9702C368.867 35.9806 365.481 34.0004 362.093 32.0209C361.189 31.4906 360.285 30.9603 359.353 30.4139C357.118 29.1033 354.881 27.7964 352.643 26.4924C351.997 26.1154 351.352 25.7385 350.687 25.3501C341.231 19.8819 325.687 33.8541 317.187 39.0619ZM328.289 54.615C323.605 57.6788 318.78 60.4925 313.975 63.3491C311.993 64.5454 310.011 65.7422 308.029 66.9395C300.336 71.561 292.555 76.0189 284.765 80.4641C283.28 81.3128 283.28 81.3128 281.766 82.1786C280.447 82.9292 280.447 82.9292 279.102 83.695C277.17 84.7306 277.17 84.7306 276.11 85.9079C276.039 87.6223 276.027 89.3394 276.048 91.0552C276.057 91.9897 276.066 92.9241 276.075 93.8869C276.087 94.6091 276.098 95.3313 276.11 96.0753C287.137 90.6145 297.745 84.6009 308.289 78.2134C310.702 76.757 313.122 75.3149 315.546 73.8779C316.34 73.4068 317.135 72.9357 317.954 72.4503C319.529 71.5168 321.105 70.5839 322.682 69.6518C326.43 67.4261 330.146 65.1645 333.814 62.801C334.492 62.368 335.169 61.935 335.867 61.4889C337.132 60.6761 338.39 59.8529 339.641 59.0176C343.776 56.3671 343.776 56.3671 346.068 56.608C349.132 57.7716 351.807 59.4035 354.627 61.0972C355.231 61.4568 355.835 61.8165 356.457 62.187C358.38 63.3322 360.299 64.4838 362.217 65.6368C364.142 66.7932 366.069 67.948 367.998 69.0974C369.744 70.1374 371.486 71.1835 373.228 72.2299C375.711 73.8662 375.711 73.8662 377.907 73.7071C377.907 70.3519 377.907 66.9967 377.907 63.5397C371.656 59.8126 371.656 59.8126 365.366 56.1562C357.123 51.4318 357.123 51.4318 353.828 48.7772C344.411 41.8937 336.711 49.0398 328.289 54.615ZM389.581 61.4731C385.658 65.9994 386.721 72.9562 386.801 78.7153C386.794 80.2126 386.783 81.7098 386.769 83.207C386.741 87.1373 386.76 91.0658 386.789 94.996C386.81 99.0104 386.786 103.025 386.767 107.039C386.735 114.908 386.752 122.776 386.801 130.644C386.303 130.928 385.805 131.211 385.292 131.503C382.992 132.812 380.692 134.123 378.393 135.434C377.61 135.88 376.826 136.325 376.019 136.784C371.046 139.622 366.118 142.525 361.229 145.514C360.129 146.185 360.129 146.185 359.006 146.869C358.39 147.245 357.775 147.621 357.14 148.008C353.184 150.407 349.201 152.756 345.211 155.094C344.594 155.455 343.977 155.817 343.342 156.189C340.245 158.003 337.146 159.814 334.045 161.622C332.889 162.297 331.734 162.973 330.579 163.649C329.558 164.244 328.537 164.84 327.484 165.453C324.443 167.305 321.53 169.271 318.607 171.314C320.709 173.692 322.559 175.32 325.526 176.397C329.36 175.909 332.178 174.617 335.521 172.668C336.498 172.102 337.475 171.536 338.482 170.953C340.049 170.031 340.049 170.031 341.648 169.09C342.737 168.455 343.826 167.82 344.948 167.166C355.408 161.054 365.804 154.828 376.174 148.557C378.807 146.965 381.443 145.379 384.08 143.794C385.625 142.864 387.171 141.933 388.716 141.002C389.418 140.581 390.12 140.159 390.843 139.724C393.942 137.975 393.942 137.975 396.685 135.728C396.778 133.315 396.809 130.932 396.797 128.519C396.797 127.765 396.797 127.012 396.797 126.235C396.797 123.732 396.789 121.229 396.781 118.725C396.779 116.994 396.778 115.263 396.777 113.532C396.773 108.968 396.763 104.403 396.752 99.8379C396.742 95.1833 396.738 90.5288 396.733 85.8742C396.722 76.7348 396.705 67.5954 396.685 58.4561C394.029 58.4561 391.741 60.0505 389.581 61.4731ZM340.536 69.5766C339.496 70.2686 338.457 70.9607 337.386 71.6736C341.22 75.9736 346.218 78.6067 351.037 81.5868C352.011 82.212 352.985 82.8372 353.988 83.4813C354.937 84.0671 355.885 84.653 356.862 85.2566C357.723 85.7963 358.584 86.3359 359.471 86.8919C362.845 88.2423 364.577 88.0128 368.023 86.9247C370.819 84.9476 370.819 84.9476 372.965 82.8577C369.121 80.4946 365.269 78.1479 361.414 75.8041C360.324 75.1337 359.234 74.4633 358.111 73.7726C357.057 73.1337 356.003 72.4948 354.917 71.8365C353.949 71.2455 352.981 70.6544 351.984 70.0455C347.664 67.8023 344.72 66.7912 340.536 69.5766ZM318.65 82.127C317.551 82.815 316.452 83.5031 315.32 84.2121C314.171 84.9466 313.023 85.6813 311.875 86.4163C310.707 87.1521 309.539 87.8869 308.371 88.6206C305.518 90.4177 302.671 92.2251 299.829 94.0418C303.025 96.9535 305.352 99.0121 309.713 99.1255C312.646 97.9675 312.646 97.9675 315.6 96.1111C316.699 95.4656 317.798 94.8201 318.93 94.155C320.079 93.461 321.227 92.7666 322.375 92.0719C323.543 91.3802 324.71 90.6897 325.879 90.0007C328.734 88.3105 331.58 86.607 334.421 84.8912C334.421 83.8846 334.421 82.8781 334.421 81.841C328.569 77.1972 324.632 78.3401 318.65 82.127ZM337.679 93.0172C336.629 93.6502 335.579 94.2832 334.498 94.9355C333.412 95.6052 332.327 96.2749 331.209 96.965C330.108 97.6268 329.007 98.2887 327.873 98.9706C322.453 101.786 322.453 101.786 318.607 106.243C319.667 106.935 320.727 107.627 321.819 108.34C322.714 108.924 322.714 108.924 323.626 109.519C326.061 110.532 327.002 110.108 329.479 109.293C330.846 108.611 332.19 107.88 333.513 107.112C334.272 106.675 335.031 106.238 335.812 105.788C336.596 105.33 337.381 104.872 338.189 104.4C338.961 103.954 339.734 103.507 340.53 103.048C345.095 100.407 349.643 97.7362 354.187 95.0586C351.721 92.4005 349.635 90.1646 345.953 89.6577C342.62 90.0585 340.567 91.2651 337.679 93.0172ZM370.49 96.0038C369.379 96.6396 368.268 97.2755 367.123 97.9306C365.92 98.6251 364.717 99.32 363.514 100.015C362.285 100.722 361.056 101.429 359.827 102.136C348.685 108.553 337.669 115.167 326.765 122.002C325.782 122.613 324.799 123.223 323.786 123.852C321.855 125.052 319.929 126.261 318.01 127.479C317.132 128.023 316.254 128.567 315.349 129.127C314.182 129.861 314.182 129.861 312.991 130.609C310.323 131.835 308.653 132.001 305.759 131.661C303.813 130.825 303.813 130.825 301.949 129.651C301.257 129.223 300.564 128.795 299.851 128.354C299.131 127.894 298.41 127.433 297.667 126.959C296.924 126.497 296.18 126.035 295.414 125.559C292.184 123.549 288.975 121.505 285.765 119.46C284.903 118.915 284.04 118.37 283.152 117.808C282.42 117.334 281.689 116.859 280.936 116.37C278.983 115.162 278.983 115.162 276.11 115.393C275.547 118.61 275.432 121.338 276.11 124.544C277.713 126.205 277.713 126.205 279.901 127.439C280.711 127.951 281.521 128.462 282.355 128.989C283.667 129.808 283.667 129.808 285.005 130.644C286.791 131.888 288.576 133.134 290.359 134.382C300.175 141.372 300.175 141.372 311.458 143.632C314.48 142.077 316.934 140.394 319.579 138.259C322.743 135.856 326.162 133.944 329.578 131.948C332.631 130.163 335.656 128.335 338.679 126.498C346.451 121.795 354.285 117.203 362.12 112.612C363.835 111.608 365.549 110.603 367.263 109.599C368.737 108.736 368.737 108.736 370.24 107.856C371.139 107.324 372.038 106.791 372.965 106.243C373.888 105.722 374.811 105.202 375.762 104.665C376.47 104.179 377.177 103.693 377.907 103.192C378.502 100.647 378.502 100.647 378.215 97.9181C378.149 96.5439 378.149 96.5439 378.08 95.142C378.023 94.4434 377.966 93.7448 377.907 93.0251C374.939 93.0251 373.071 94.5226 370.49 96.0038ZM284.943 102.684C283.856 103.392 283.856 103.392 282.746 104.114C282.187 104.481 281.628 104.848 281.051 105.226C285.835 109.574 291.316 112.599 296.864 115.775C297.838 116.355 298.811 116.936 299.814 117.534C301.228 118.342 301.228 118.342 302.671 119.166C303.524 119.662 304.378 120.158 305.257 120.669C307.727 121.734 307.727 121.734 310.276 120.877C312.857 119.354 314.647 117.661 316.631 115.393C312.85 113.219 309.068 111.047 305.284 108.877C303.996 108.138 302.709 107.399 301.422 106.658C299.576 105.596 297.728 104.537 295.88 103.478C294.767 102.839 293.654 102.201 292.508 101.542C288.761 99.4943 288.433 100.404 284.943 102.684ZM372.683 116.767C371.783 117.291 370.882 117.814 369.955 118.352C368.971 118.928 367.987 119.503 366.973 120.096C365.449 120.985 365.449 120.985 363.893 121.893C356.62 126.146 349.372 130.444 342.142 134.775C341.164 135.359 340.186 135.943 339.179 136.545C334.337 139.451 329.536 142.407 324.788 145.474C323.891 146.048 322.994 146.622 322.069 147.214C320.385 148.296 318.709 149.392 317.043 150.505C316.293 150.985 315.543 151.465 314.77 151.96C314.124 152.386 313.478 152.812 312.812 153.251C309.765 154.375 307.882 153.871 304.771 153.013C301.636 151.452 301.636 151.452 298.312 149.462C297.718 149.11 297.124 148.757 296.512 148.394C294.627 147.273 292.75 146.14 290.873 145.006C289.609 144.252 288.345 143.498 287.08 142.746C277.741 137.18 277.741 137.18 274.425 134.937C272.11 133.345 272.11 133.345 269.068 134.394C266.12 135.685 266.12 135.685 263.262 137.762C263.262 138.433 263.262 139.104 263.262 139.795C263.792 140.106 264.322 140.417 264.869 140.737C275.543 146.999 286.207 153.275 296.821 159.642C297.55 160.078 298.279 160.514 299.03 160.964C299.664 161.344 300.298 161.724 300.951 162.116C301.864 162.643 301.864 162.643 302.794 163.18C303.422 163.582 304.05 163.984 304.697 164.399C307.43 165.484 308.91 165.06 311.689 164.197C313.827 163.239 313.827 163.239 315.905 162.008C316.694 161.56 317.483 161.111 318.295 160.649C319.132 160.163 319.969 159.677 320.831 159.177C321.713 158.671 322.594 158.165 323.502 157.644C329.531 154.171 335.51 150.614 341.45 146.982C345.906 144.259 350.383 141.578 354.878 138.925C355.746 138.412 355.746 138.412 356.631 137.889C359.527 136.179 362.424 134.472 365.323 132.768C366.384 132.142 367.444 131.516 368.537 130.871C369.96 130.033 369.96 130.033 371.412 129.179C373.715 127.743 375.869 126.356 377.907 124.544C378.384 121.993 378.384 121.993 378.154 119.27C378.118 118.353 378.082 117.437 378.046 116.493C378 115.795 377.954 115.096 377.907 114.377C376.006 114.377 374.289 115.833 372.683 116.767Z" fill="#696969"/>
<path d="M256.343 52.3557C256.67 52.3557 256.996 52.3557 257.332 52.3557C257.658 78.5264 257.984 104.697 258.32 131.661C257.342 131.661 256.363 131.661 255.355 131.661C255.332 121.471 255.315 111.281 255.304 101.091C255.299 96.3599 255.292 91.6288 255.281 86.8976C255.27 82.3357 255.264 77.7738 255.261 73.2119C255.26 71.4674 255.256 69.723 255.251 67.9786C255.244 65.5439 255.242 63.1092 255.243 60.6745C255.239 59.9461 255.236 59.2177 255.232 58.4672C255.242 53.4883 255.242 53.4883 256.343 52.3557Z" fill="#696969"/>
<path d="M283.028 60.4896C278.334 63.5398 278.334 63.5398 276.11 63.5398C276.436 67.2305 276.762 70.9213 277.098 74.7239C276.12 75.0594 275.141 75.3949 274.133 75.7406C274.133 71.3788 274.133 67.017 274.133 62.523C275.112 62.523 276.09 62.523 277.098 62.523C277.098 61.852 277.098 61.1809 277.098 60.4896C279.56 59.2232 280.469 59.6998 283.028 60.4896Z" fill="#696969"/>
<path d="M287.97 32.0209C289.274 32.3564 290.579 32.692 291.923 33.0377C289.828 34.4245 287.728 35.7994 285.622 37.1681C285.026 37.5646 284.43 37.9611 283.816 38.3696C282.272 39.3664 280.676 40.276 279.075 41.1715C278.422 40.836 277.77 40.5005 277.098 40.1548C279.545 37.4577 281.635 35.3964 285.005 34.0544C285.983 34.0544 286.962 34.0544 287.97 34.0544C287.97 33.3833 287.97 32.7123 287.97 32.0209Z" fill="#696969"/>
<path d="M274.133 113.36C275.112 113.695 276.09 114.031 277.098 114.377C277.087 115.087 277.075 115.797 277.063 116.529C277.054 117.455 277.046 118.38 277.036 119.333C277.025 120.253 277.013 121.173 277.002 122.121C276.938 124.561 276.938 124.561 278.086 126.577C276.782 126.242 275.477 125.906 274.133 125.561C274.133 121.534 274.133 117.508 274.133 113.36Z" fill="#696969"/>
<path d="M274.133 85.908C274.785 85.908 275.438 85.908 276.11 85.908C276.436 89.5987 276.762 93.2895 277.098 97.0921C276.12 97.4276 275.141 97.7631 274.133 98.1088C274.133 94.0825 274.133 90.0562 274.133 85.908Z" fill="#696969"/>
<path d="M270.18 134.711C265.485 137.762 265.485 137.762 263.262 137.762C263.262 138.433 263.262 139.104 263.262 139.795C262.283 139.795 261.305 139.795 260.297 139.795C260.623 138.788 260.949 137.782 261.285 136.745C262.263 136.745 263.242 136.745 264.25 136.745C264.25 136.074 264.25 135.403 264.25 134.711C266.712 133.445 267.621 133.922 270.18 134.711Z" fill="#696969"/>
</g>
<g transform="translate(50, 0)">
<path d="M468.832 26.9372C476.985 26.9372 485.139 26.9372 493.54 26.9372C496.651 33.3394 499.467 39.6616 502.126 46.2552C502.772 47.856 502.772 47.856 503.431 49.4891C507.979 60.851 512.174 72.3337 516.271 83.8745C516.642 84.91 517.013 85.9456 517.396 87.0126C523.71 104.653 529.439 122.467 535.052 140.354C535.331 141.245 535.611 142.135 535.899 143.052C536.45 144.812 537 146.572 537.549 148.332C538.911 152.688 540.305 157.028 541.761 161.352C542.183 162.614 542.183 162.614 542.613 163.902C543.147 165.494 543.689 167.083 544.239 168.669C546.03 174.025 546.03 174.025 544.932 177.414C535.8 177.414 526.668 177.414 517.259 177.414C513.126 166.074 509.85 154.421 506.388 142.845C488.124 142.51 469.86 142.174 451.042 141.828C450.39 144.848 449.737 147.868 449.065 150.979C448.407 153.133 447.709 155.275 446.961 157.397C446.376 159.066 446.376 159.066 445.778 160.769C445.375 161.9 444.972 163.031 444.556 164.197C444.149 165.359 443.742 166.522 443.323 167.719C440.309 176.255 440.309 176.255 439.182 177.414C437.278 177.503 435.371 177.523 433.465 177.514C432.309 177.51 431.152 177.507 429.961 177.504C428.744 177.495 427.527 177.487 426.272 177.478C424.441 177.471 424.441 177.471 422.572 177.464C419.543 177.452 416.515 177.435 413.486 177.414C412.154 173.667 412.862 171.478 414.181 167.795C414.574 166.681 414.967 165.567 415.372 164.419C416.028 162.61 416.028 162.61 416.698 160.765C417.152 159.492 417.605 158.218 418.057 156.944C419.008 154.27 419.966 151.597 420.928 148.927C422.33 145.029 423.707 141.122 425.079 137.213C430.743 121.124 436.66 105.157 442.824 89.2637C443.708 86.9819 444.586 84.6976 445.458 82.4112C449.284 72.4404 453.391 62.6073 457.571 52.7883C458.716 50.0975 459.858 47.405 460.999 44.7123C461.731 42.9878 462.463 41.2635 463.195 39.5392C463.534 38.7407 463.873 37.9422 464.222 37.1195C464.539 36.3751 464.856 35.6308 465.183 34.8639C465.459 34.2145 465.735 33.5651 466.02 32.896C466.907 30.8858 467.872 28.9121 468.832 26.9372ZM479.703 61.5063C474.961 71.93 470.949 82.606 467.102 93.4064C466.867 94.0637 466.632 94.721 466.39 95.3982C465.702 97.325 465.019 99.2535 464.338 101.183C463.942 102.304 463.546 103.425 463.138 104.58C461.62 109.161 460.3 113.808 458.949 118.444C472.321 118.444 485.692 118.444 499.47 118.444C498.138 111.595 496.76 105.524 494.466 99.062C494.172 98.2175 493.877 97.3731 493.574 96.503C492.93 94.6586 492.283 92.8153 491.635 90.9728C490.475 87.6572 489.343 84.3329 488.212 81.007C487.415 78.6795 486.617 76.3521 485.819 74.0248C485.438 72.9009 485.058 71.7769 484.666 70.6189C484.306 69.579 483.946 68.5391 483.575 67.4677C483.257 66.5375 482.939 65.6074 482.611 64.6491C481.867 62.3514 481.867 62.3514 479.703 61.5063Z" fill="#696969"/>
<path d="M664.519 29.9874C664.519 40.7242 664.519 51.4609 664.519 62.523C676.26 62.8585 688.001 63.1941 700.098 63.5397C700.119 67.2095 700.139 70.8793 700.16 74.6603C700.169 75.8188 700.178 76.9773 700.187 78.171C700.19 79.0767 700.192 79.9824 700.195 80.9156C700.2 81.8474 700.205 82.7792 700.21 83.7392C700.098 85.9079 700.098 85.9079 699.11 86.9247C696.475 87.0147 693.865 87.0419 691.23 87.024C690.442 87.0225 689.654 87.0211 688.841 87.0196C686.314 87.0139 683.786 87.0011 681.258 86.9882C679.549 86.9831 677.839 86.9785 676.13 86.9743C671.93 86.9631 667.73 86.9455 663.53 86.9247C663.48 93.997 663.446 101.069 663.422 108.142C663.412 110.545 663.398 112.948 663.381 115.351C663.357 118.817 663.346 122.282 663.337 125.747C663.327 126.812 663.317 127.877 663.306 128.974C663.305 136.547 663.58 144.325 667.484 150.979C673.627 154.591 679.247 155.025 686.107 153.338C687.953 152.802 689.792 152.24 691.62 151.646C694.223 150.965 696.437 150.86 699.11 150.979C699.636 153.922 700.148 156.866 700.654 159.812C700.804 160.642 700.954 161.473 701.108 162.328C701.834 166.618 702.36 170.103 701.087 174.364C699.049 175.024 697.01 175.68 694.971 176.334C693.836 176.7 692.701 177.065 691.531 177.442C679.229 181.137 664.808 181.084 653.196 175.158C645.654 170.527 641.476 164.219 639.008 155.618C637.142 147.399 636.79 139.483 636.8 131.057C636.8 130.18 636.801 129.303 636.802 128.399C636.829 117.156 637.019 105.915 637.214 94.6736C637.278 90.9581 637.337 87.2425 637.396 83.527C637.67 67.0267 638.165 50.5431 638.822 34.0544C642.906 32.8407 646.935 31.6821 651.115 30.8771C651.97 30.7067 652.824 30.5363 653.705 30.3608C657.284 29.9012 660.912 29.9874 664.519 29.9874Z" fill="#696969"/>
<path d="M597.313 9.65272C597.436 32.2744 597.302 54.8813 596.889 77.4997C596.69 88.4361 596.504 99.3728 596.325 110.31C596.308 111.295 596.292 112.281 596.275 113.297C596.195 118.271 596.13 123.245 596.095 128.219C596.078 130.248 596.046 132.277 596.014 134.306C595.99 140.643 596.148 145.446 599.29 150.979C603.084 154.124 606.216 154.613 611.15 156.063C609.845 163.444 608.54 170.826 607.196 178.431C600.229 180.82 590.436 178.292 583.909 175.19C577.35 171.357 573.592 166.398 571.165 159.105C570.109 155.117 569.515 151.358 569.513 147.222C569.512 146.242 569.511 145.262 569.509 144.252C569.514 143.15 569.519 142.047 569.524 140.911C569.527 139.702 569.53 138.493 569.534 137.247C569.614 116.664 570.013 96.0807 570.376 75.501C570.486 69.229 570.585 62.9569 570.681 56.6846C570.758 51.8272 570.843 46.9699 570.931 42.1127C570.971 39.7968 571.008 37.4808 571.042 35.1648C571.089 31.9566 571.149 28.7489 571.211 25.541C571.228 24.1128 571.228 24.1128 571.245 22.6559C571.265 21.786 571.284 20.9161 571.304 20.0199C571.317 19.2649 571.33 18.5099 571.343 17.7321C571.617 15.7531 571.617 15.7531 573.593 12.7029C576.327 11.9751 578.908 11.4292 581.685 10.9872C582.42 10.8555 583.154 10.7237 583.911 10.588C588.431 9.8178 592.719 9.60233 597.313 9.65272Z" fill="#696969"/>
<path d="M699.11 63.5397C699.436 63.5397 699.762 63.5397 700.098 63.5397C700.127 67.2466 700.144 70.9534 700.16 74.6603C700.168 75.7186 700.176 76.777 700.185 77.8674C700.188 78.8733 700.191 79.8792 700.195 80.9156C700.2 81.8474 700.205 82.7792 700.21 83.7392C700.098 85.9079 700.098 85.9079 699.11 86.9247C696.475 87.0147 693.865 87.0419 691.23 87.024C690.442 87.0225 689.654 87.0211 688.841 87.0196C686.314 87.0139 683.786 87.0011 681.258 86.9882C679.549 86.9831 677.839 86.9785 676.13 86.9743C671.93 86.9631 667.73 86.9455 663.53 86.9247C663.53 86.5892 663.53 86.2536 663.53 85.9079C675.092 84.7885 686.513 84.8137 698.122 84.8912C698.448 77.8452 698.774 70.7992 699.11 63.5397Z" fill="#696969"/>
</g>
</svg>